<svg width="22" height="24" viewBox="0 0 22 24" fill="none" xmlns="http://www.w3.org/2000/svg">
<path d="M13.1431 11.1127L14.7527 8.38151L19.0912 15.1389L19.0933 16.4357L19.0791 7.51198C19.0688 7.29385 18.953 7.09431 18.7682 6.97662L10.9573 2.48363C10.7747 2.3938 10.5428 2.39483 10.3605 2.48648C10.3358 2.49876 10.3126 2.51221 10.2906 2.52688L10.2633 2.54399L2.6816 6.93752L2.65222 6.95089C2.61438 6.96827 2.5761 6.99039 2.54026 7.01607C2.39647 7.11914 2.30104 7.27159 2.27016 7.4426C2.26551 7.46851 2.26208 7.49487 2.2605 7.52155L2.27242 14.7935L6.31351 8.52999C6.82233 7.69947 7.9308 7.43194 8.95987 7.44648L10.1676 7.47835L3.05129 18.8909L3.89016 19.3738L11.0917 7.48995L14.2748 7.4784L7.09184 19.6622L10.0852 21.3839L10.4428 21.5896C10.5941 21.651 10.7725 21.6542 10.925 21.599L18.8457 17.0089L17.3314 17.8864L13.1431 11.1127ZM13.7572 19.9577L10.7339 15.2127L12.5794 12.0809L16.55 18.3392L13.7572 19.9577Z" fill="#2D374B"/>
<path d="M10.7339 15.2126L13.7571 19.9577L16.55 18.3392L12.5794 12.0809L10.7339 15.2126Z" fill="#28A0F0"/>
<path d="M19.0932 16.4357L19.0911 15.1388L14.7526 8.38147L13.1431 11.1127L17.3313 17.8863L18.8456 17.0088C18.9941 16.8881 19.084 16.7111 19.0934 16.5201L19.0932 16.4357Z" fill="#28A0F0"/>
<path d="M0.912842 17.6586L3.05128 18.8909L10.1676 7.47835L8.95981 7.44648C7.93075 7.43194 6.82223 7.69947 6.31345 8.52999L2.27236 14.7935L0.912842 16.8824V17.6586Z" fill="white"/>
<path d="M14.2748 7.47839L11.0916 7.48995L3.89014 19.3738L6.40729 20.8231L7.09181 19.6622L14.2748 7.47839Z" fill="white"/>
<path d="M20.4347 7.46203C20.408 6.79633 20.0476 6.18693 19.483 5.83214L11.5697 1.28137C11.0112 1.00017 10.3136 0.999808 9.75408 1.28119C9.68794 1.31455 2.05856 5.73928 2.05856 5.73928C1.95297 5.78993 1.85126 5.85025 1.7556 5.91873C1.2516 6.27993 0.944398 6.84125 0.912842 7.45792V16.8825L2.27236 14.7936L2.26049 7.52162C2.26207 7.49503 2.26541 7.46885 2.27015 7.44303C2.30089 7.27193 2.39642 7.1193 2.54025 7.01614C2.57614 6.99045 10.3359 2.49882 10.3605 2.4865C10.5429 2.3949 10.7747 2.39382 10.9573 2.48366L18.7683 6.97655C18.953 7.09424 19.0689 7.29378 19.0792 7.51192V16.5201C19.0697 16.7111 18.9942 16.8881 18.8457 17.0088L17.3314 17.8863L16.55 18.3391L13.7572 19.9577L10.925 21.599C10.7724 21.6541 10.5941 21.651 10.4428 21.5895L7.09183 19.6621L6.40731 20.8231L9.4187 22.5569C9.51829 22.6136 9.607 22.6638 9.67982 22.7046C9.79254 22.7678 9.86938 22.8101 9.89651 22.8233C10.1105 22.9273 10.4185 22.9878 10.696 22.9878C10.9504 22.9878 11.1986 22.9411 11.4333 22.8491L19.6597 18.085C20.1319 17.7191 20.4097 17.1674 20.4347 16.5698V7.46203Z" fill="#96BEDC"/>
</svg>
