<svg width="24" height="24" viewBox="0 0 24 24" fill="none" xmlns="http://www.w3.org/2000/svg">
<path d="M12.0004 1.83371C12.4958 1.83215 12.9817 1.96927 13.4031 2.22955C13.8246 2.48984 14.1648 2.8629 14.3852 3.30651L21.8852 18.3064C22.0887 18.713 22.1849 19.1648 22.1646 19.619C22.1443 20.0732 22.0082 20.5147 21.7692 20.9015C21.5303 21.2883 21.1964 21.6075 20.7993 21.8289C20.4021 22.0503 19.955 22.1665 19.5004 22.1664H4.50043C4.04584 22.1664 3.59882 22.0501 3.20182 21.8286C2.80483 21.6072 2.47104 21.2879 2.23217 20.9012C1.99329 20.5144 1.85727 20.073 1.83701 19.6188C1.81676 19.1647 1.91295 18.7129 2.11644 18.3064L9.61561 3.30651C9.83603 2.8629 10.1762 2.48984 10.5977 2.22955C11.0191 1.96927 11.505 1.83215 12.0004 1.83371V1.83371ZM12.0004 0.000122093C11.1648 3.90489e-05 10.3458 0.232594 9.6349 0.671738C8.92405 1.11088 8.3495 1.73927 7.97562 2.48651L0.475646 17.4865C0.132351 18.1726 -0.0298297 18.935 0.00451089 19.7015C0.0388514 20.4679 0.268573 21.2128 0.671852 21.8655C1.07513 22.5181 1.63858 23.0568 2.30867 23.4304C2.97875 23.804 3.73323 24.0001 4.50043 24H19.5004C20.2675 24 21.0219 23.8038 21.6919 23.4301C22.3618 23.0565 22.9252 22.5178 23.3284 21.8651C23.7315 21.2125 23.9612 20.4676 23.9955 19.7013C24.0298 18.9349 23.8676 18.1725 23.5244 17.4865L16.0252 2.48651C15.6513 1.73927 15.0768 1.11088 14.3659 0.671738C13.655 0.232594 12.836 3.90489e-05 12.0004 0.000122093V0.000122093Z" fill="#78D64B"/>
</svg>
