<svg width="24" height="24" viewBox="0 0 24 24" fill="none" xmlns="http://www.w3.org/2000/svg">
<path fill-rule="evenodd" clip-rule="evenodd" d="M24 12.0001C24 18.6275 18.6274 24.0001 12 24.0001C5.37259 24.0001 0 18.6275 0 12.0001C0 5.37271 5.37259 0.00012207 12 0.00012207C18.6274 0.00012207 24 5.37271 24 12.0001ZM8.59957 16.7753H6.27071C5.78137 16.7753 5.53962 16.7753 5.39221 16.6809C5.23304 16.5777 5.13574 16.4068 5.12394 16.2181C5.11512 16.0442 5.23597 15.8319 5.47771 15.4074L11.228 5.27181C11.4726 4.84141 11.5965 4.62622 11.7527 4.54662C11.9207 4.46115 12.1212 4.46115 12.2892 4.54662C12.4455 4.62622 12.5693 4.84141 12.814 5.27181L13.9961 7.33537L14.0021 7.3459C14.2664 7.80765 14.4004 8.04179 14.4589 8.28754C14.5237 8.55581 14.5237 8.8388 14.4589 9.10706C14.4 9.35471 14.2673 9.59055 13.999 10.0593L10.9786 15.3986L10.9707 15.4123C10.7047 15.8778 10.5699 16.1137 10.3831 16.2918C10.1797 16.4864 9.935 16.6279 9.66673 16.7075C9.42206 16.7753 9.14789 16.7753 8.59957 16.7753ZM14.4807 16.7755H17.8178C18.3101 16.7755 18.5577 16.7755 18.7051 16.6783C18.8643 16.5751 18.9645 16.4011 18.9734 16.2125C18.9819 16.0443 18.8637 15.8402 18.6319 15.4404C18.624 15.4268 18.616 15.4129 18.6078 15.3988L16.9364 12.5394L16.9173 12.5072C16.6824 12.11 16.5638 11.9094 16.4116 11.8319C16.2436 11.7464 16.0461 11.7464 15.8781 11.8319C15.7247 11.9114 15.6009 12.1208 15.3563 12.5423L13.6907 15.4018L13.685 15.4116C13.4411 15.8325 13.3193 16.0428 13.3281 16.2154C13.3399 16.4041 13.4371 16.578 13.5964 16.6812C13.7408 16.7755 13.9884 16.7755 14.4807 16.7755Z" fill="black"/>
</svg>
