<svg width="24" height="22" viewBox="0 0 24 22" fill="none" xmlns="http://www.w3.org/2000/svg">
<path d="M19.2319 1.30813L14.2243 8.00135C13.878 8.45716 14.5438 9.00894 15.0233 8.6251L19.9511 4.7627C20.0844 4.66674 20.2708 4.73871 20.2708 4.90664V16.9736C20.2708 17.1416 20.0311 17.2136 19.9245 17.0935L5.00778 1.02025C4.52831 0.492471 3.83574 0.20459 3.06327 0.20459H2.53052C1.1454 0.20459 0 1.23616 0 2.50763V19.4926C0 20.764 1.1454 21.7956 2.55716 21.7956C3.43619 21.7956 4.26194 21.3878 4.74141 20.6921L9.74918 13.9989C10.0955 13.5431 9.42954 12.9912 8.95007 13.3751L4.02221 17.2136C3.88901 17.3094 3.70256 17.2376 3.70256 17.0696V5.02659C3.70256 4.85866 3.94229 4.78668 4.04884 4.90664L18.9656 20.9799C19.4451 21.5077 20.1643 21.7956 20.9101 21.7956H21.4429C22.8547 21.7956 24 20.764 24 19.4926V2.50763C23.9734 1.23616 22.8279 0.20459 21.4163 0.20459C20.5372 0.20459 19.7114 0.612421 19.2319 1.30813Z" fill="#3F4246"/>
</svg>
