<svg width="29" height="32" viewBox="0 0 29 32" fill="none" xmlns="http://www.w3.org/2000/svg">
<path d="M16.6207 30.3966C15.2931 31.181 13.6638 31.181 12.2759 30.3966L3.10345 25.0862C1.71552 24.3017 0.931035 22.8534 0.931035 21.2845V10.6638C0.931035 9.09483 1.71552 7.64655 3.10345 6.86207L12.2759 1.55172C13.6638 0.76724 15.2931 0.76724 16.6207 1.55172L25.8534 6.86207C27.2414 7.64655 28.0259 9.09483 28.0259 10.6638V21.2845C28.0259 22.8534 27.2414 24.3017 25.8534 25.0862L16.6207 30.3966ZM6.66379 10.7845C6.5431 10.3621 6.06035 10.1207 5.57759 10.181C5.15517 10.3017 4.7931 10.6638 4.7931 11.1466V20.8017C4.7931 21.3448 5.27586 21.7672 5.75862 21.7672C6.30172 21.7672 6.72414 21.3448 6.72414 20.8017V16.1552L8.77586 21.1638C8.89655 21.5862 9.37931 21.8276 9.80172 21.7672C10.2845 21.6466 10.5862 21.2845 10.5862 20.8017V11.1466C10.5862 10.6034 10.1638 10.181 9.62069 10.181C9.13793 10.181 8.65517 10.6034 8.65517 11.1466V15.7931L6.66379 10.7845ZM12.5172 11.1466V15.9741V20.8017C12.5172 21.3448 13 21.7672 13.4828 21.7672C14.0259 21.7672 14.4483 21.3448 14.4483 20.8017V16.9397H16.3793C16.9224 16.9397 17.3448 16.5172 17.3448 15.9741C17.3448 15.431 16.9224 15.0086 16.3793 15.0086H14.4483V12.1121H16.3793C16.9224 12.1121 17.3448 11.6897 17.3448 11.1466C17.3448 10.6034 16.9224 10.181 16.3793 10.181H13.4828C13 10.181 12.5172 10.6034 12.5172 11.1466ZM19.2759 10.181C18.7931 10.181 18.3103 10.6034 18.3103 11.1466C18.3103 11.6897 18.7931 12.1121 19.2759 12.1121H20.2414V20.8017C20.2414 21.3448 20.7241 21.7672 21.2069 21.7672C21.75 21.7672 22.1724 21.3448 22.1724 20.8017V12.1121H23.1379C23.681 12.1121 24.1034 11.6897 24.1034 11.1466C24.1034 10.6034 23.681 10.181 23.1379 10.181H19.2759Z" fill="#FF5833"/>
</svg>
