<svg width="24" height="24" viewBox="0 0 24 24" fill="none" xmlns="http://www.w3.org/2000/svg">
<g clip-path="url(#clip0_1020_33962)">
<path d="M12 24.0001C18.6274 24.0001 24 18.6275 24 12.0001C24 5.37271 18.6274 0.00012207 12 0.00012207C5.37258 0.00012207 0 5.37271 0 12.0001C0 18.6275 5.37258 24.0001 12 24.0001Z" fill="#FF0420"/>
<path d="M8.50233 15.1896C7.7878 15.1896 7.2024 15.0214 6.74606 14.6852C6.29572 14.343 6.07056 13.8566 6.07056 13.2261C6.07056 13.094 6.08558 12.9319 6.11558 12.7398C6.19368 12.3075 6.30475 11.7881 6.44884 11.1816C6.85713 9.53043 7.91092 8.70483 9.61017 8.70483C10.0725 8.70483 10.4868 8.78288 10.8531 8.93898C11.2194 9.08907 11.5076 9.31727 11.7177 9.62351C11.9278 9.9237 12.033 10.284 12.033 10.7043C12.033 10.8304 12.0179 10.9895 11.9879 11.1816C11.8978 11.716 11.7898 12.2354 11.6637 12.7398C11.4535 13.5624 11.0902 14.1778 10.5739 14.5861C10.0575 14.9884 9.367 15.1896 8.50233 15.1896ZM8.62843 13.8926C8.96471 13.8926 9.24988 13.7936 9.48407 13.5954C9.72427 13.3973 9.89539 13.094 9.99743 12.6858C10.1355 12.1213 10.2407 11.6289 10.3127 11.2087C10.3367 11.0826 10.3487 10.9535 10.3487 10.8213C10.3487 10.275 10.0635 10.0017 9.4931 10.0017C9.15681 10.0017 8.86862 10.1008 8.62843 10.299C8.39428 10.4972 8.22614 10.8004 8.12409 11.2087C8.016 11.6109 7.9079 12.1033 7.79985 12.6858C7.7758 12.8058 7.7638 12.9319 7.7638 13.064C7.7638 13.6164 8.05204 13.8926 8.62843 13.8926Z" fill="white"/>
<path d="M12.4465 15.0995C12.3805 15.0995 12.3294 15.0784 12.2934 15.0364C12.2634 14.9883 12.2544 14.9343 12.2664 14.8743L13.5093 9.01997C13.5213 8.95392 13.5543 8.89987 13.6084 8.85782C13.6624 8.81582 13.7194 8.7948 13.7795 8.7948H16.1753C16.8417 8.7948 17.3761 8.9329 17.7784 9.20909C18.1867 9.48533 18.3909 9.88459 18.3909 10.407C18.3909 10.5571 18.3729 10.7132 18.3368 10.8753C18.1867 11.5658 17.8835 12.0762 17.4272 12.4065C16.9769 12.7367 16.3584 12.9018 15.5718 12.9018H14.3559L13.9416 14.8743C13.9296 14.9403 13.8966 14.9943 13.8426 15.0364C13.7885 15.0784 13.7314 15.0995 13.6714 15.0995H12.4465ZM15.6349 11.6589C15.887 11.6589 16.1062 11.5898 16.2923 11.4517C16.4845 11.3136 16.6106 11.1155 16.6706 10.8573C16.6886 10.7552 16.6976 10.6652 16.6976 10.5871C16.6976 10.413 16.6466 10.2809 16.5445 10.1908C16.4424 10.0947 16.2683 10.0467 16.0221 10.0467H14.9413L14.5991 11.6589H15.6349Z" fill="white"/>
</g>
<defs>
<clipPath id="clip0_1020_33962">
<rect width="24" height="24" fill="white"/>
</clipPath>
</defs>
</svg>
