<svg width="24" height="22" viewBox="0 0 24 22" fill="none" xmlns="http://www.w3.org/2000/svg">
<path d="M18.1107 6.92636C17.6679 6.66067 17.0923 6.66067 16.6052 6.92636L13.1513 8.96326L10.8044 10.2917L7.35055 12.3286C6.90775 12.5943 6.3321 12.5943 5.84502 12.3286L3.09963 10.7345C2.65683 10.4688 2.34686 9.98171 2.34686 9.45034V6.30643C2.34686 5.77506 2.61255 5.28798 3.09963 5.0223L5.80074 3.47248C6.24354 3.2068 6.81919 3.2068 7.30627 3.47248L10.0074 5.0223C10.4502 5.28798 10.7601 5.77506 10.7601 6.30643V8.34333L13.107 6.97064V4.93374C13.107 4.40237 12.8413 3.91529 12.3542 3.6496L7.35055 0.727094C6.90775 0.461411 6.3321 0.461411 5.84502 0.727094L0.752768 3.6496C0.265683 3.91529 0 4.40237 0 4.93374V10.823C0 11.3544 0.265683 11.8415 0.752768 12.1072L5.84502 15.0297C6.28782 15.2954 6.86347 15.2954 7.35055 15.0297L10.8044 13.0371L13.1513 11.6644L16.6052 9.67174C17.048 9.40606 17.6236 9.40606 18.1107 9.67174L20.8118 11.2216C21.2546 11.4872 21.5646 11.9743 21.5646 12.5057V15.6496C21.5646 16.181 21.2989 16.6681 20.8118 16.9337L18.1107 18.5278C17.6679 18.7935 17.0923 18.7935 16.6052 18.5278L13.9041 16.978C13.4613 16.7123 13.1513 16.2252 13.1513 15.6939V13.657L10.8044 15.0297V17.0666C10.8044 17.5979 11.0701 18.085 11.5572 18.3507L16.6494 21.2732C17.0923 21.5389 17.6679 21.5389 18.155 21.2732L23.2472 18.3507C23.69 18.085 24 17.5979 24 17.0666V11.1773C24 10.6459 23.7343 10.1588 23.2472 9.89314L18.1107 6.92636Z" fill="#8247E5"/>
</svg>
